<?xml version="1.0" encoding="utf-8"?>
<!-- Generator: Adobe Illustrator 22.1.0, SVG Export Plug-In . SVG Version: 6.00 Build 0)  -->
<svg version="1.1" id="Layer_1" xmlns="http://www.w3.org/2000/svg" xmlns:xlink="http://www.w3.org/1999/xlink" x="0px" y="0px"
	 viewBox="0 0 600 255" style="enable-background:new 0 0 600 255;" xml:space="preserve">
<style type="text/css">
	.st0{fill:#1099D6;}
	.st1{fill:#80C242;}
</style>

<path class="st0" d="M222.5,11.4v111.5c-5.5-8.7-11.8-18.1-18.8-28.2c-7-10.1-14.3-20.1-21.8-30.2c-7.5-10-15-19.7-22.4-28.9
	c-7.4-9.3-14.4-17.3-20.8-24.1h-24.8v88.4h0v13.6c-0.5,7.6-1.4,14.1-3.1,19.5c-1.7,5.4-4.1,9.8-7.3,13.2c-3.1,3.4-6.9,5.9-11.3,7.5
	c-4.4,1.6-9.2,2.4-14.5,2.4c-5.3,0-10.1-0.8-14.4-2.4c-4.3-1.6-8-4.1-11.1-7.5c-3.1-3.4-5.6-7.8-7.3-13.2
	c-1.7-5.4-2.5-11.9-2.5-19.5v-102H11.6v104.9c0,9.7,1.3,18.6,3.9,26.7c2.6,8.1,6.6,15.1,12,21.1c5.4,6,12.2,10.6,20.5,13.9
	c8.2,3.3,18.1,5,29.6,5c11.5,0,21.4-1.7,29.8-5c8.4-3.3,15.3-8,20.7-13.9c5.4-6,9.5-13,12.1-21.1c2.7-8.1,4-17,4-26.7v-15.2h0V59.1
	c6.4,8.1,13.5,17.2,21.1,27.3c7.5,10.1,14.9,20.5,22.2,31.3c7.3,10.7,14.3,21.4,21.1,32c6.8,10.6,12.9,20.5,18.4,29.7h25.9V11.4
	H222.5z"/>
<path class="st0" d="M500.1,156.5c11,0,19-1.9,24-5.6c5-3.7,7.5-9,7.5-15.8c0-4-0.8-7.5-2.5-10.4c-1.7-2.9-4.1-5.5-7.3-7.9
	c-3.1-2.3-7-4.5-11.5-6.5c-4.5-2-9.7-4-15.5-5.9c-5.8-2.1-11.4-4.4-16.8-6.9c-5.4-2.5-10.2-5.6-14.3-9.3c-4.1-3.7-7.4-8.2-9.9-13.3
	c-2.5-5.2-3.8-11.4-3.8-18.6c0-15.2,5.3-27.1,15.8-35.7c10.5-8.6,24.8-13,42.9-13c10.5,0,19.8,1.2,28,3.5c8.2,2.3,14.6,4.9,19.3,7.6
	l-9.5,24.7c-5.5-3.1-11.5-5.4-18-7c-6.6-1.6-13.3-2.4-20.2-2.4c-8.2,0-14.7,1.7-19.3,5.1c-4.6,3.4-6.9,8.2-6.9,14.3
	c0,3.7,0.8,6.9,2.3,9.6c1.5,2.7,3.7,5.1,6.5,7.2c2.8,2.1,6.1,4,9.9,5.8c3.8,1.8,7.9,3.5,12.5,5.1c7.9,2.9,15,5.9,21.2,8.9
	c6.2,3,11.5,6.5,15.8,10.7c4.3,4.1,7.5,9,9.8,14.5c2.3,5.6,3.4,12.3,3.4,20.2c0,15.2-5.4,26.9-16.1,35.2
	c-10.7,8.3-26.5,12.5-47.1,12.5c-6.9,0-13.3-0.4-19-1.3c-5.7-0.9-10.8-2-15.3-3.3c-4.4-1.3-8.3-2.6-11.5-4c-3.2-1.4-5.8-2.6-7.8-3.8
	l9-25c4.4,2.4,10.3,4.8,17.7,7.3C480.6,155.3,489.5,156.5,500.1,156.5z"/>
<g>
	<g>
		<path class="st1" d="M445.7,89.8c-0.9-14.3-4-26.8-9.4-37.4c-3.1-6-6-11.2-10.7-16.3c-4.7-5.4-11.8-10.4-22.1-14
			c-19.3-6.7-52.9-7-76,20.7c1.4-0.9,2.9-1.8,4.4-2.6c6.4-3.3,13.8-5.2,22.2-5.7c8.2-0.5,15.7,0.5,22.5,3
			c6.8,2.5,12.7,6.2,17.6,11.2c4.9,5,8.8,11.1,11.8,18.5c2.9,7.3,4.6,15.6,5.2,24.8c0.6,9.2-0.4,17.5-2.1,25.2
			c-0.6,2.9-2,6.3-3.3,9.2c-9.4,22.2-24.6,37.8-44.3,45.1c-9.5,3.5-18.7,4.7-26.7,4.7c-8.3,0-15.3-1.3-20.4-2.6
			c4.6,2.3,9.5,4.2,14.7,5.6c10.9,3.1,22.4,4.2,34.4,3.5c12-0.7,23.2-3.3,33.6-7.6c10.4-4.4,19.3-10.5,26.8-18.3
			c7.2-7.5,12.7-16.6,16.7-27.3c0.2-0.4,0.3-0.9,0.5-1.3C445,116.9,446.5,104.2,445.7,89.8z"/>
	</g>
</g>
<g>
	<path class="st0" d="M262.2,100.1c0.9,14.3,4,26.8,9.4,37.4c3.1,6,6,11.2,10.7,16.3c4.7,5.4,11.8,10.4,22.1,14
		c19.3,6.7,52.9,7,76-20.7c-1.4,0.9-2.9,1.8-4.4,2.6c-6.4,3.3-13.8,5.2-22.2,5.7c-8.2,0.5-15.7-0.5-22.5-3
		c-6.8-2.5-12.7-6.2-17.6-11.2c-4.9-5-8.8-11.1-11.7-18.5c-2.9-7.3-4.6-15.6-5.2-24.8c-0.6-9.2,0.4-17.5,2.1-25.2
		c0.6-2.9,2-6.3,3.3-9.2c9.4-22.2,24.7-37.8,44.3-45.1c9.5-3.5,18.7-4.7,26.7-4.7c8.3,0,15.3,1.3,20.4,2.6
		c-4.6-2.3-9.5-4.2-14.7-5.6c-10.9-3.1-22.4-4.2-34.4-3.5c-12,0.7-23.2,3.3-33.6,7.6c-10.4,4.4-19.3,10.5-26.8,18.3
		c-7.2,7.5-12.7,16.6-16.7,27.3c-0.2,0.4-0.3,0.9-0.5,1.3C262.9,73,261.3,85.8,262.2,100.1z"/>
</g>
<g>
	<path class="st0" d="M568,23c0.9,0,1.5-0.1,1.9-0.4c0.4-0.3,0.6-0.7,0.6-1.2c0-0.3-0.1-0.6-0.2-0.8c-0.1-0.2-0.3-0.4-0.6-0.6
		c-0.2-0.2-0.5-0.4-0.9-0.5c-0.4-0.2-0.8-0.3-1.2-0.5c-0.5-0.2-0.9-0.3-1.3-0.5c-0.4-0.2-0.8-0.4-1.1-0.7c-0.3-0.3-0.6-0.6-0.8-1
		c-0.2-0.4-0.3-0.9-0.3-1.5c0-1.2,0.4-2.1,1.2-2.8c0.8-0.7,1.9-1,3.3-1c0.8,0,1.5,0.1,2.2,0.3c0.6,0.2,1.1,0.4,1.5,0.6l-0.7,1.9
		c-0.4-0.2-0.9-0.4-1.4-0.5c-0.5-0.1-1-0.2-1.6-0.2c-0.6,0-1.1,0.1-1.5,0.4c-0.4,0.3-0.5,0.6-0.5,1.1c0,0.3,0.1,0.5,0.2,0.7
		c0.1,0.2,0.3,0.4,0.5,0.6c0.2,0.2,0.5,0.3,0.8,0.5c0.3,0.1,0.6,0.3,1,0.4c0.6,0.2,1.2,0.5,1.7,0.7c0.5,0.2,0.9,0.5,1.2,0.8
		c0.3,0.3,0.6,0.7,0.8,1.1c0.2,0.4,0.3,1,0.3,1.6c0,1.2-0.4,2.1-1.3,2.7c-0.8,0.6-2.1,1-3.7,1c-0.5,0-1,0-1.5-0.1
		c-0.4-0.1-0.8-0.2-1.2-0.3c-0.3-0.1-0.6-0.2-0.9-0.3c-0.3-0.1-0.5-0.2-0.6-0.3l0.7-1.9c0.3,0.2,0.8,0.4,1.4,0.6
		C566.5,22.9,567.2,23,568,23z"/>
	<path class="st0" d="M577.9,11.7c0.3,0.5,0.6,1.1,0.9,1.8s0.7,1.4,1,2.2c0.4,0.8,0.7,1.5,1,2.3c0.3,0.8,0.7,1.5,1,2.2
		c0.3-0.7,0.6-1.4,0.9-2.2c0.3-0.8,0.7-1.6,1-2.3c0.4-0.8,0.7-1.5,1-2.2c0.3-0.7,0.6-1.3,0.9-1.8h2.1c0.1,1,0.2,2,0.3,3.1
		c0.1,1.1,0.2,2.2,0.3,3.3c0.1,1.1,0.2,2.3,0.2,3.4c0.1,1.1,0.1,2.3,0.2,3.3h-2.3c-0.1-1.5-0.1-3.1-0.2-4.7
		c-0.1-1.6-0.2-3.2-0.3-4.7c-0.1,0.3-0.3,0.6-0.5,1c-0.2,0.4-0.4,0.8-0.6,1.3c-0.2,0.5-0.4,1-0.7,1.5c-0.2,0.5-0.4,1-0.6,1.5
		c-0.2,0.5-0.4,0.9-0.6,1.3c-0.2,0.4-0.3,0.8-0.5,1H581c-0.1-0.3-0.3-0.6-0.5-1.1c-0.2-0.4-0.4-0.9-0.6-1.3c-0.2-0.5-0.4-1-0.6-1.5
		c-0.2-0.5-0.4-1-0.7-1.5c-0.2-0.5-0.4-0.9-0.6-1.3c-0.2-0.4-0.4-0.8-0.5-1c-0.1,1.5-0.2,3.1-0.3,4.7c-0.1,1.6-0.1,3.2-0.2,4.7h-2.3
		c0.1-1.1,0.1-2.2,0.2-3.4c0.1-1.2,0.1-2.3,0.2-3.4c0.1-1.1,0.2-2.2,0.3-3.3c0.1-1.1,0.2-2.1,0.3-3H577.9z"/>
</g>
</svg>
